<svg xmlns="http://www.w3.org/2000/svg" width="26.789" height="11.481" viewBox="0 0 26.789 11.481"><defs><style>.a{fill:#384364;}</style></defs><g transform="translate(-2 -10)"><path class="a" d="M23.048,10a5.746,5.746,0,0,0-5.74,5.74H13.481a5.74,5.74,0,1,0-5.74,5.74H23.048a5.74,5.74,0,1,0,0-11.481Zm-5.406,7.654a5.749,5.749,0,0,0,1.139,1.913H12.007a5.717,5.717,0,0,0,1.139-1.913ZM3.913,15.74A3.827,3.827,0,1,1,7.74,19.567,3.831,3.831,0,0,1,3.913,15.74Zm19.135,3.827a3.827,3.827,0,1,1,3.827-3.827A3.831,3.831,0,0,1,23.048,19.567Z"/></g></svg>