<svg xmlns="http://www.w3.org/2000/svg" width="27.468" height="19.784" viewBox="0 0 27.468 19.784"><defs><style>.a{fill:#384364;stroke:#384364;}</style></defs><g transform="translate(0.5 0.5)"><g transform="translate(0 2.887)"><path class="a" d="M15.214,39.61a3.042,3.042,0,1,1,3.07-3.042A3.06,3.06,0,0,1,15.214,39.61Zm0-5.231a2.189,2.189,0,1,0,2.216,2.189A2.205,2.205,0,0,0,15.214,34.38Z" transform="translate(-9.978 -33.526)"/><path class="a" d="M8.471,73.157H3.116A1.114,1.114,0,0,1,2,72.048v-1.4a5.246,5.246,0,0,1,8.36-4.16.427.427,0,0,1-.507.687,4.392,4.392,0,0,0-7,3.473v1.4a.259.259,0,0,0,.262.255H8.471a.427.427,0,1,1,0,.854Z" transform="translate(-2 -58.649)"/></g><g transform="translate(17.763 2.676)"><path class="a" d="M92.808,71.644H87.453a.427.427,0,1,1,0-.854h5.355a.259.259,0,0,0,.262-.255v-1.4a4.361,4.361,0,0,0-4.382-4.331,4.421,4.421,0,0,0-2.774.979.427.427,0,1,1-.537-.664,5.277,5.277,0,0,1,3.311-1.169,5.216,5.216,0,0,1,5.235,5.185v1.4A1.114,1.114,0,0,1,92.808,71.644Z" transform="translate(-85.219 -57.248)"/><path class="a" d="M90.158,38.622a3.042,3.042,0,1,1,3.071-3.042A3.06,3.06,0,0,1,90.158,38.622Zm0-5.231a2.189,2.189,0,1,0,2.217,2.189A2.205,2.205,0,0,0,90.158,33.392Z" transform="translate(-86.689 -32.538)"/></g><g transform="translate(6.044 0)"><path class="a" d="M43.3,69.426H31.711a1.392,1.392,0,0,1-1.4-1.386V66.076a7.191,7.191,0,0,1,14.38,0V68.04A1.392,1.392,0,0,1,43.3,69.426Zm-5.794-9.614a6.308,6.308,0,0,0-6.336,6.265v1.964a.538.538,0,0,0,.542.532H43.3a.538.538,0,0,0,.542-.532V66.077A6.308,6.308,0,0,0,37.505,59.812Z" transform="translate(-30.315 -50.642)"/><path class="a" d="M48.766,27.817a3.909,3.909,0,1,1,3.946-3.908A3.932,3.932,0,0,1,48.766,27.817Zm0-6.963a3.055,3.055,0,1,0,3.092,3.055A3.077,3.077,0,0,0,48.766,20.854Z" transform="translate(-41.724 -20)"/></g></g></svg>