<svg xmlns="http://www.w3.org/2000/svg" width="28.781" height="28.781" viewBox="0 0 28.781 28.781"><defs><style>.a{fill:none;stroke:#384364;stroke-linecap:round;stroke-linejoin:round;stroke-miterlimit:10;stroke-width:2px;}</style></defs><g transform="translate(-1 -1)"><path class="a" d="M25.657,9.454a3.08,3.08,0,0,1-4.33-4.33L18.2,2,2,18.2l3.125,3.125a3.08,3.08,0,0,1,4.33,4.33l3.125,3.125,16.2-16.2Z"/><path class="a" d="M23.149,30.023a1.339,1.339,0,0,1-1.875,0l-3.749-3.749a1.339,1.339,0,0,1,0-1.875L24.4,17.525a1.339,1.339,0,0,1,1.875,0l3.749,3.749a1.339,1.339,0,0,1,0,1.875Z" transform="translate(-8.383 -8.383)"/></g></svg>