<svg xmlns="http://www.w3.org/2000/svg" xmlns:xlink="http://www.w3.org/1999/xlink" width="1006.091" height="807.63" viewBox="0 0 1006.091 807.63"><defs><style>.a{fill:#e2dffe;}.b,.e,.t{fill:#fff;}.c{fill:#d0c7fe;}.d{fill:#ff6501;}.e{opacity:0.73;}.f{fill:url(#a);}.g{fill:#5812a8;}.h{fill:#410c8e;}.i{fill:#ffaeae;}.j{fill:#f49a9a;}.k{fill:#3b0e7c;}.l{fill:#f96262;opacity:0.33;}.m{fill:#e25610;}.n{fill:#2578fa;}.o{fill:#184fd6;opacity:0.53;}.p{fill:#5812a5;}.q{fill:url(#b);}.r{fill:url(#c);}.s{fill:url(#d);}.t{opacity:0.32;}</style><linearGradient id="a" x1="-0.098" y1="-0.167" x2="0.897" y2="1.199" gradientUnits="objectBoundingBox"><stop offset="0" stop-color="#e2dffe"/><stop offset="1" stop-color="#5812a5"/></linearGradient><linearGradient id="b" x1="1.04" y1="2.817" x2="-0.088" y2="-2.023" xlink:href="#a"/><linearGradient id="c" x1="-0.123" y1="-0.096" x2="-0.088" y2="-0.062" xlink:href="#a"/><linearGradient id="d" x1="1.914" y1="0.146" x2="-1.311" y2="0.95" xlink:href="#a"/></defs><g transform="translate(-285.907 -226.706)"><path class="a" d="M1177.022,92.217c-34.277,10.657-66.71,32.483-81.974,64.974-10.331,21.991-12.078,46.879-17.639,70.532s-16.716,48.216-38.394,59.2c-15.842,8.026-34.575,7.381-52.229,5.449-43.537-4.765-86.737-16.236-130.448-13.486s-90.164,23.949-106.3,64.662c-13.976,35.254-3.217,79.081-25.678,109.638-38.609,52.53-133.823,17.379-178.814,64.559-31.866,33.416-22.977,93.814-58.48,123.339-23.726,19.731-59.418,18.295-84.539,36.216-24.436,17.431-33.458,48.755-47.083,75.5s-40.493,53.142-69.536,45.559A200.157,200.157,0,0,0,391,871.3c26.437,7.56,54.111,9.545,81.57,11,66.353,3.526,132.819,4.228,199.263,4.63q270.729,1.641,541.443-3.316c26.173-.48,53.3-1.151,78.721-7.407" transform="translate(0 147)"/><g transform="translate(393.436 226.706)"><g transform="translate(0 291.441)"><path class="b" d="M414.788,345.384c8.306,3.873,16.957,7.243,24.356,12.654a41.058,41.058,0,0,1,9.027,8.988,272.352,272.352,0,0,1-8.628-26.012,40.279,40.279,0,0,1-1.556-7.8c-.06-.845-.005-1.688.018-2.53-2.725-6.126-7.966-10.893-13.462-14.823-5.968-4.262-12.454-7.9-17.641-13.089-10.191-10.18-14.118-24.965-16.446-39.182,4.163,8.166,11.342,14.354,18.7,19.824s15.145,10.52,21.3,17.31a37.688,37.688,0,0,1,8.985,16.418c1.677-12.247,4.335-24.47,11.653-34.256,2.852-3.813,6.32-7.116,9.475-10.686a82.835,82.835,0,0,0,10.914-15.679c-2.494,7.531-2.351,15.635-3.132,23.531s-2.776,16.182-8.467,21.711c-1.631,1.584-3.513,2.885-5.177,4.436a36.629,36.629,0,0,0-6.681,9.042c-2.491,4.438-4.609,9.226-4.985,14.3-.353,4.8.869,9.569,2.123,14.219,2.432,9.022,5.073,17.983,7.826,26.914,1.662-13.286,4.132-26.79,12.078-37.416,2.854-3.816,6.323-7.119,9.478-10.689a82.819,82.819,0,0,0,10.911-15.679c-2.491,7.531-2.349,15.635-3.132,23.531s-2.774,16.182-8.464,21.711c-1.631,1.584-3.515,2.885-5.177,4.436A36.636,36.636,0,0,0,462,365.61c-2.491,4.438-4.609,9.226-4.985,14.3-.355,4.8.868,9.566,2.121,14.217,3.072,11.388,12.164,41,8.324,36.138h0c-5.626-12.584-7.461-19.381-11.111-32.67-.547-1.993-2.872-9.449-4.13-12.267-3.915-5.164-9.833-8.625-15.814-11.277-6.7-2.971-13.792-5.231-19.92-9.26-12.034-7.915-18.862-21.605-24.013-35.057C398.2,336.9,406.48,341.508,414.788,345.384Z" transform="translate(-226.951 -256.516)"/><g transform="translate(230.344 45.823)"><path class="c" d="M489.833,567.428c15.549-7.853,34.8-12.573,47.278-24.732s22.028-27.982,23.928-45.3c.226-2.071.311-4.3-.765-6.087-2.3-3.813-8.127-3.142-12.013-.967s-7.552,5.452-12.008,5.431c-6.673-.036-11.012-7.964-9.9-14.543s5.838-11.881,10.362-16.786l18.1-19.624c5.708-6.191,11.671-12.876,13.068-21.18s-4.1-18.3-12.516-18.321c-7.884-.018-13.035,7.813-18.1,13.851s-14.862,10.9-20.164,5.071c-2.333-2.569-2.722-6.331-2.655-9.8.373-19.378,11.067-36.843,16.8-55.358a110.837,110.837,0,0,0,2.517-55.537c-1.693-7.961-4.425-16.006-9.994-21.942s-14.528-9.27-22.113-6.32c-12.047,4.685-13.991,20.628-14,33.554l-.016,39.97c0,2.616-.039,5.366-1.343,7.632-3.253,5.644-11.8,4.716-17.532,1.62s-11.321-7.733-17.812-7.194c-6.193.516-11.145,5.968-12.76,11.969s-.5,12.4,1.255,18.362c7.593,25.826,26.606,47.229,33.559,73.233.658,2.471,1.107,5.405-.583,7.324-1.369,1.555-3.679,1.846-5.747,1.7-8.615-.594-15.718-6.6-23.358-10.629s-18.414-5.54-23.819,1.192c-2.333,2.9-3.1,6.771-3.238,10.494-.511,13.68,6.377,26.487,13.9,37.922,17.4,26.44,34.375,45.961,59.664,64.992" transform="translate(-416.239 -274.192)"/><g transform="translate(73.096 9.441)"><path class="b" d="M444.469,561.5c6.733-17.354,7.461-36.071,6.258-54.448-1.229-18.787-4.3-37.416-5.112-56.237a162.146,162.146,0,0,1,1.047-28.286,227.317,227.317,0,0,1,5.916-28.408c4.92-18.541,11.142-36.812,14.043-55.828,2.7-17.714,2.681-36.457-4.034-53.323-.871-2.188-1.861-4.324-2.945-6.414-.285-.547.544-1.032.827-.485,8.231,15.866,9.859,34.059,8.182,51.625-1.82,19.052-7.508,37.357-12.677,55.693-2.691,9.543-5.25,19.137-7.041,28.9a154.858,154.858,0,0,0-2.551,29.2c.148,19.109,3.178,38.028,4.806,57.033,1.561,18.235,1.843,36.963-3.513,54.653-.674,2.227-1.441,4.42-2.281,6.59-.22.568-1.148.321-.926-.257Z" transform="translate(-444.435 -277.833)"/></g></g><g transform="translate(0 104.105)"><path class="c" d="M584.5,454.435c-.2-17.421,4.047-36.784-1.371-53.339s-15.414-32.1-30.124-41.44c-1.758-1.117-3.725-2.178-5.8-2-4.438.386-6.4,5.911-6.162,10.359s1.566,9.182-.415,13.169c-2.971,5.975-12,6.377-17.418,2.481s-8.094-10.473-10.5-16.7l-9.641-24.9c-3.041-7.852-6.416-16.151-13.255-21.063s-18.235-4.386-21.963,3.163c-3.489,7.067,1.273,15.145,4.462,22.352s3.238,18.147-4.335,20.335c-3.331.964-6.883-.345-9.965-1.934-17.232-8.874-28.2-26.168-42.3-39.469a110.829,110.829,0,0,0-48.745-26.73c-7.894-1.988-16.319-3.08-24.1-.7s-14.722,8.957-15.417,17.066c-1.1,12.879,12.35,21.649,23.954,27.35l35.874,17.626c2.346,1.154,4.8,2.4,6.261,4.568,3.632,5.405-.967,12.672-6.271,16.451s-11.93,6.756-14.3,12.819c-2.268,5.789.443,12.635,5.12,16.729s10.911,5.911,17.037,6.966c26.528,4.563,54.119-3.075,80.528,2.144,2.507.5,5.34,1.387,6.318,3.746.793,1.916.036,4.119-1,5.913-4.329,7.471-12.853,11.2-19.835,16.283S448.04,459.778,451.7,467.6c1.581,3.373,4.713,5.766,7.995,7.531,12.055,6.484,26.588,5.947,40.169,4.228,31.4-3.972,56.4-10.608,84.632-24.923" transform="translate(-327.385 -296.674)"/><g transform="translate(8.981 18.856)"><path class="b" d="M578.661,443.213c-12.612-13.691-29.095-22.593-46.122-29.61-17.408-7.173-35.482-12.628-52.737-20.19a162.079,162.079,0,0,1-24.929-13.4,226.919,226.919,0,0,1-22.9-17.828c-14.476-12.586-28.138-26.222-43.928-37.2C373.337,314.746,356.5,306.508,338.4,305.1c-2.349-.181-4.7-.233-7.057-.181-.614.016-.687-.944-.07-.957,17.869-.4,34.917,6.16,49.951,15.4,16.3,10.027,30.225,23.2,44.408,35.918,7.381,6.621,14.868,13.146,22.837,19.054a154.875,154.875,0,0,0,25.084,15.153c17.221,8.288,35.539,13.9,53.315,20.814,17.058,6.634,34,14.632,47.516,27.236,1.7,1.584,3.334,3.241,4.91,4.952.412.448-.218,1.172-.638.718Z" transform="translate(-330.85 -303.947)"/></g></g><path class="b" d="M420.693,441.928c8.384-3.7,16.615-8,25.559-10.009a41.113,41.113,0,0,1,12.705-.879,272.229,272.229,0,0,1-25.26-10.626,40.248,40.248,0,0,1-6.9-3.964c-.674-.511-1.273-1.107-1.892-1.68-6.4-1.981-13.444-1.172-20.019.381-7.137,1.685-14.149,4.171-21.465,4.664-14.372.972-28.089-5.8-40.322-13.405,8.887,2.24,18.269.91,27.231-1.027s17.885-4.482,27.052-4.646a37.633,37.633,0,0,1,18.271,4.039c-8.114-9.32-15.567-19.368-18.118-31.316-.993-4.659-1.2-9.447-1.809-14.17a82.738,82.738,0,0,0-4.62-18.536c4.029,6.834,10.225,12.06,15.653,17.846s10.357,12.742,10.774,20.664c.119,2.268-.14,4.544-.067,6.815a36.594,36.594,0,0,0,2.411,10.981c1.7,4.8,3.912,9.545,7.487,13.167,3.383,3.43,7.775,5.646,12.1,7.762,8.394,4.106,16.882,8.018,25.416,11.821-8.908-9.994-17.449-20.742-20.218-33.719-1-4.659-1.2-9.447-1.809-14.17a82.776,82.776,0,0,0-4.622-18.536c4.029,6.836,10.227,12.062,15.656,17.846s10.357,12.742,10.771,20.664c.119,2.271-.137,4.545-.065,6.818A36.622,36.622,0,0,0,467,419.7c1.7,4.8,3.914,9.543,7.489,13.167,3.381,3.427,7.772,5.644,12.1,7.759,10.6,5.185,38.87,17.828,32.685,17.522h0c-13.175-4.049-19.5-7.142-31.91-13.138-1.859-.9-9-4.057-11.951-4.967-6.466-.451-12.965,1.727-18.9,4.485-6.65,3.09-13.016,6.94-20.083,8.9-13.88,3.852-28.68-.016-42.2-4.993C403.386,448.832,412.307,445.633,420.693,441.928Z" transform="translate(-302.366 -122.375)"/><path class="d" d="M363.266,323.315a7.24,7.24,0,0,1,4.467-3.533,25.641,25.641,0,0,1,14.227-.472,64.564,64.564,0,0,1,13.6,5.161,76.765,76.765,0,0,1,13.011,7.575c-2.227-3.318-4.436-6.647-6.673-9.958q-1.73-2.555-3.463-5.1c-16.524-6.673-23.848-16.91-29.751-30.769a9.014,9.014,0,0,1-.353-5.291,3.8,3.8,0,0,1,3.508-2.442,8.863,8.863,0,0,1,4.272,1.226c12.392,6.289,20.4,20.138,23.044,34.65a3.788,3.788,0,0,0,.788,1.366c4.187,6.16,8.081,11.4,12.228,17.595a94.239,94.239,0,0,1-4.871-35.664,17.453,17.453,0,0,1,1.7-7.57c1.262-2.237,3.751-3.865,6.121-3.222s3.845,3.235,4.679,5.729c2.043,6.108,1.864,12.765,1.6,19.23a75.832,75.832,0,0,1-1.543,14.339,37.8,37.8,0,0,1-4.811,11.43q8.808,13.182,17.579,26.391c1.428,2.149,2.867,4.288,4.3,6.437a94.275,94.275,0,0,1-4.371-34.106,17.384,17.384,0,0,1,1.7-7.572c1.26-2.237,3.749-3.863,6.121-3.222s3.845,3.238,4.677,5.729c2.043,6.11,1.864,12.768,1.6,19.233a75.866,75.866,0,0,1-1.542,14.339,37.854,37.854,0,0,1-4.565,11.018c8.257,12.371,16.542,24.719,24.973,36.952,1.8,2.616,3.653,5.19,5.467,7.793a94.3,94.3,0,0,1-4.69-35.148,17.379,17.379,0,0,1,1.7-7.57c1.262-2.237,3.749-3.865,6.121-3.222s3.845,3.235,4.677,5.729c2.043,6.11,1.864,12.765,1.6,19.231a75.465,75.465,0,0,1-1.542,14.341,37.822,37.822,0,0,1-4.669,11.191c8.418,12,16.939,23.91,25.753,35.573l.016.023a94.269,94.269,0,0,1-5.187-36.527,17.42,17.42,0,0,1,1.706-7.572c1.26-2.235,3.748-3.863,6.118-3.222s3.847,3.238,4.679,5.729c2.043,6.11,1.864,12.768,1.6,19.233a75.852,75.852,0,0,1-1.542,14.339,37.834,37.834,0,0,1-4.786,11.386c9.887,12.972,20.091,25.665,30.694,37.961a94.182,94.182,0,0,1-5.242-36.675,17.416,17.416,0,0,1,1.7-7.57c1.263-2.237,3.751-3.865,6.121-3.222s3.845,3.235,4.679,5.729c2.043,6.108,1.864,12.765,1.6,19.23a75.844,75.844,0,0,1-1.542,14.339,37.838,37.838,0,0,1-4.692,11.23c.239.272.467.55.705.822a574.68,574.68,0,0,0,40.309,41.8q2.594,2.423,5.221,4.8c1.11,1-.363,2.8-1.467,1.8a557.04,557.04,0,0,1-40.812-41.274c-1.48-1.651-2.924-3.342-4.386-5.011-13.12,5.014-27.9,2.846-41.1-2.281a15.362,15.362,0,0,1-6.046-3.609c-1.631-1.789-2.512-4.6-1.519-6.847a7.247,7.247,0,0,1,4.467-3.533,25.64,25.64,0,0,1,14.227-.472,64.368,64.368,0,0,1,13.6,5.161,78.375,78.375,0,0,1,12.638,7.316q-14.987-17.378-28.993-35.7c-.27-.347-.524-.71-.791-1.06-13.159,5.091-28,2.917-41.256-2.229a15.363,15.363,0,0,1-6.046-3.609c-1.631-1.789-2.512-4.6-1.519-6.847a7.24,7.24,0,0,1,4.467-3.534,25.641,25.641,0,0,1,14.227-.472,64.417,64.417,0,0,1,13.6,5.162,70.764,70.764,0,0,1,14.479,8.78q-15.652-20.59-30.445-41.909c-13.131,5.037-27.928,2.867-41.147-2.266a15.36,15.36,0,0,1-6.045-3.609c-1.631-1.789-2.512-4.6-1.519-6.847a7.245,7.245,0,0,1,4.469-3.533,25.631,25.631,0,0,1,14.225-.472,64.228,64.228,0,0,1,13.6,5.161,71.009,71.009,0,0,1,14.445,8.752c-9.307-13.4-18.427-26.953-27.5-40.537-13.146,5.066-27.964,2.893-41.2-2.248a15.361,15.361,0,0,1-6.046-3.609c-1.631-1.789-2.512-4.6-1.519-6.847a7.245,7.245,0,0,1,4.469-3.533,25.631,25.631,0,0,1,14.225-.472,64.366,64.366,0,0,1,13.6,5.161,69.622,69.622,0,0,1,14.831,9.089c-1.161-1.74-2.333-3.471-3.495-5.213q-11.7-17.569-23.417-35.119c-12.983,4.747-27.529,2.59-40.548-2.465a15.331,15.331,0,0,1-6.046-3.609C363.155,328.373,362.273,325.56,363.266,323.315Z" transform="translate(-270.915 -221.545)"/><circle class="e" cx="7.262" cy="7.262" r="7.262" transform="translate(20.251 311.69)"/><circle class="e" cx="4.179" cy="4.179" r="4.179" transform="translate(18.119 281.247)"/><circle class="e" cx="3.057" cy="3.057" r="3.057" transform="translate(57.227 320.214)"/></g><g transform="translate(433.116)"><g transform="translate(0 143.054)"><g transform="translate(38.072 15.61)"><path class="b" d="M524.79,209.329c4.682,5.986-2.012,10.668-2.012,10.668-3.087,3.915,4.866,11.256,4.866,11.256s7.811,7.5,11.531,4.176c0,0,4.267-6.966,10.528-2.652s5.615,10.154-.039,14.81c0,0-8.031,6.237-26.886-11.508-18.6-18.466-12.77-25.818-12.77-25.818C514.314,204.336,520.108,203.34,524.79,209.329Z" transform="translate(-509.142 -205.298)"/></g><path class="b" d="M587.741,295.207l-15.964-20.729H515.019a20.587,20.587,0,0,1-20.563-20.563V219.84a20.587,20.587,0,0,1,20.563-20.563h73.824a20.587,20.587,0,0,1,20.565,20.563v34.075a20.588,20.588,0,0,1-19.4,20.529Zm-72.722-93.337a17.99,17.99,0,0,0-17.971,17.971v34.075a17.99,17.99,0,0,0,17.971,17.971h58.034l12.812,16.635,1.817-16.635h1.161a17.994,17.994,0,0,0,17.973-17.971V219.84a17.994,17.994,0,0,0-17.973-17.971Z" transform="translate(-494.456 -199.277)"/></g><g transform="translate(177.624 91.569)"><path class="b" d="M591.487,304.682l-2.924-26.759a26.785,26.785,0,0,1-25.59-26.73v-45.02a26.786,26.786,0,0,1,26.754-26.756h97.547a26.786,26.786,0,0,1,26.754,26.756v45.02a26.786,26.786,0,0,1-26.754,26.756h-75.2Zm-1.76-122.673a24.189,24.189,0,0,0-24.161,24.164v45.02a24.188,24.188,0,0,0,24.161,24.164h1.161L593.364,298l17.431-22.64h76.479a24.188,24.188,0,0,0,24.161-24.164v-45.02a24.189,24.189,0,0,0-24.161-24.164Z" transform="translate(-562.973 -179.417)"/><g transform="translate(39.434 52.03)"><circle class="b" cx="6.379" cy="6.379" r="6.379"/></g><g transform="translate(65.749 52.03)"><circle class="b" cx="6.379" cy="6.379" r="6.379"/></g><g transform="translate(92.063 52.03)"><circle class="b" cx="6.379" cy="6.379" r="6.379"/></g></g><g transform="translate(332.609 188.699)"><g transform="translate(32.837 11.671)"><path class="b" d="M651.7,222.532a9.307,9.307,0,0,1,3.793,3.186,7.881,7.881,0,0,1,1.382,4.519,8.08,8.08,0,0,1-.633,3.3,9.118,9.118,0,0,1-1.545,2.434,25.547,25.547,0,0,1-2.411,2.271,19.268,19.268,0,0,0-3,3.09,5.619,5.619,0,0,0-.98,3.373v.653a1.279,1.279,0,0,1-1.265,1.265h-1.734a1.279,1.279,0,0,1-1.265-1.265v-.983a7.818,7.818,0,0,1,.658-3.3,9.05,9.05,0,0,1,1.568-2.414q.91-.98,2.458-2.388a19.468,19.468,0,0,0,2.927-2.973,4.981,4.981,0,0,0,.959-3.067,4.13,4.13,0,0,0-1.872-3.559,7.653,7.653,0,0,0-4.5-1.312,6.83,6.83,0,0,0-4.215,1.265,6.655,6.655,0,0,0-2.341,3.886,1.247,1.247,0,0,1-.446.749,1.2,1.2,0,0,1-.773.283h-2.012a1.07,1.07,0,0,1-.752-.306.821.821,0,0,1-.28-.726,9.638,9.638,0,0,1,5.034-7.772,11.61,11.61,0,0,1,5.784-1.358A12.585,12.585,0,0,1,651.7,222.532Zm-3.3,31.729a1.223,1.223,0,0,1-.892.373h-2.668a1.275,1.275,0,0,1-1.265-1.265V250.7a1.275,1.275,0,0,1,1.265-1.265h2.668a1.275,1.275,0,0,1,1.265,1.265v2.668A1.219,1.219,0,0,1,648.4,254.26Z" transform="translate(-635.424 -221.386)"/></g><path class="b" d="M639.144,290.208l-1.763-16.146a15.812,15.812,0,0,1-14.624-15.749V232.677a15.81,15.81,0,0,1,15.793-15.793h55.542a15.81,15.81,0,0,1,15.793,15.793v25.636a15.81,15.81,0,0,1-15.793,15.793H651.546Zm-.594-70.731a13.215,13.215,0,0,0-13.2,13.2v25.636a13.215,13.215,0,0,0,13.2,13.2h1.161l1.312,12.008,9.247-12.008h43.822a13.215,13.215,0,0,0,13.2-13.2V232.677a13.215,13.215,0,0,0-13.2-13.2Z" transform="translate(-622.757 -216.884)"/></g><g transform="translate(292.738)"><path class="b" d="M626.219,227.915l-2-18.287a18.033,18.033,0,0,1-16.84-17.973V162.1A18.028,18.028,0,0,1,625.384,144.1h64.033A18.028,18.028,0,0,1,707.426,162.1v29.551a18.03,18.03,0,0,1-18.009,18.009H640.272Zm-.835-81.228A15.433,15.433,0,0,0,609.969,162.1v29.551a15.435,15.435,0,0,0,15.414,15.417h1.161l1.55,14.157L639,207.072h50.42a15.435,15.435,0,0,0,15.417-15.417V162.1a15.433,15.433,0,0,0-15.417-15.417Z" transform="translate(-607.377 -144.095)"/><g transform="translate(26.332 34.598)"><circle class="b" cx="4.188" cy="4.188" r="4.188"/></g><g transform="translate(43.606 34.598)"><circle class="b" cx="4.188" cy="4.188" r="4.188"/></g><g transform="translate(60.88 34.598)"><circle class="b" cx="4.188" cy="4.188" r="4.188"/></g></g></g><g transform="translate(479.295 268.769)"><g transform="translate(19.987)"><path class="b" d="M635.176,341.151c-8.309,3.873-16.957,7.243-24.358,12.654a41.166,41.166,0,0,0-9.027,8.988,271.747,271.747,0,0,0,8.628-26.012,40.1,40.1,0,0,0,1.558-7.8c.06-.845.005-1.688-.018-2.53,2.722-6.126,7.964-10.893,13.462-14.823,5.965-4.262,12.451-7.9,17.641-13.089,10.191-10.18,14.116-24.965,16.446-39.182-4.163,8.166-11.342,14.354-18.7,19.824s-15.145,10.52-21.3,17.31a37.66,37.66,0,0,0-8.985,16.418c-1.677-12.247-4.334-24.47-11.653-34.256-2.854-3.813-6.323-7.116-9.478-10.686a82.822,82.822,0,0,1-10.911-15.679c2.494,7.531,2.349,15.635,3.132,23.531s2.777,16.182,8.467,21.711c1.631,1.584,3.513,2.885,5.174,4.436A36.573,36.573,0,0,1,601.938,311c2.489,4.438,4.609,9.226,4.983,14.3.355,4.8-.866,9.569-2.121,14.219-2.434,9.022-5.073,17.983-7.826,26.912-1.664-13.283-4.132-26.787-12.081-37.414-2.852-3.816-6.32-7.119-9.475-10.689A82.833,82.833,0,0,1,564.5,302.656c2.494,7.531,2.351,15.635,3.132,23.531s2.777,16.182,8.467,21.711c1.631,1.584,3.513,2.885,5.177,4.436a36.628,36.628,0,0,1,6.681,9.042c2.491,4.438,4.609,9.226,4.983,14.3.355,4.8-.866,9.566-2.121,14.217-3.069,11.389-12.161,41-8.322,36.138h0c5.626-12.584,7.458-19.381,11.111-32.67.547-1.993,2.872-9.449,4.127-12.267,3.915-5.164,9.833-8.625,15.816-11.277,6.7-2.971,13.792-5.231,19.917-9.26,12.036-7.915,18.865-21.605,24.016-35.057C651.762,332.663,643.484,337.275,635.176,341.151Z" transform="translate(-449.078 -240.584)"/><path class="c" d="M598.248,541.008c-15.552-7.852-34.806-12.573-47.28-24.734s-22.025-27.982-23.928-45.3c-.226-2.071-.311-4.3.767-6.087,2.3-3.813,8.124-3.142,12.011-.967s7.554,5.452,12.008,5.431c6.673-.034,11.013-7.964,9.9-14.543s-5.836-11.881-10.362-16.786l-18.1-19.624c-5.709-6.188-11.671-12.876-13.066-21.18s4.1-18.3,12.516-18.321c7.881-.018,13.035,7.813,18.1,13.854s14.865,10.9,20.164,5.068c2.336-2.566,2.722-6.331,2.657-9.8-.376-19.378-11.067-36.841-16.8-55.358a110.868,110.868,0,0,1-2.517-55.537c1.693-7.961,4.428-16,9.994-21.942s14.528-9.268,22.113-6.32c12.049,4.685,13.994,20.628,14,33.554l.016,39.972c0,2.613.036,5.366,1.343,7.629,3.251,5.644,11.8,4.716,17.53,1.623s11.321-7.736,17.812-7.194c6.193.513,11.147,5.965,12.76,11.967s.5,12.4-1.255,18.362C641.034,380.6,622.021,402,615.071,428.01c-.661,2.468-1.11,5.4.581,7.321,1.369,1.555,3.681,1.848,5.748,1.706,8.615-.6,15.718-6.6,23.358-10.629s18.414-5.543,23.819,1.19c2.333,2.906,3.1,6.771,3.241,10.494.508,13.68-6.377,26.489-13.906,37.924-17.4,26.437-34.375,45.958-59.662,64.992" transform="translate(-519.979 -247.77)"/><g transform="translate(53.958 9.44)"><path class="b" d="M565.566,535.082c-6.732-17.354-7.461-36.073-6.258-54.451,1.231-18.787,4.3-37.416,5.112-56.237a162.146,162.146,0,0,0-1.047-28.286,226.938,226.938,0,0,0-5.916-28.408c-4.92-18.541-11.14-36.812-14.041-55.828-2.7-17.714-2.683-36.455,4.031-53.323.871-2.188,1.861-4.324,2.945-6.414.285-.547-.542-1.032-.827-.485-8.231,15.866-9.856,34.059-8.179,51.628,1.817,19.049,7.505,37.354,12.674,55.69,2.691,9.543,5.25,19.14,7.041,28.9a154.652,154.652,0,0,1,2.551,29.193c-.148,19.109-3.178,38.028-4.806,57.033-1.561,18.235-1.843,36.965,3.513,54.653.674,2.227,1.441,4.423,2.281,6.59.223.57,1.151.321.926-.254Z" transform="translate(-540.793 -251.411)"/></g><g transform="translate(115.426 115.805)"><path class="c" d="M565.9,450.2c.2-17.421-4.049-36.784,1.371-53.339s15.414-32.1,30.124-41.44c1.758-1.117,3.725-2.178,5.8-2,4.438.386,6.4,5.911,6.159,10.359s-1.566,9.182.418,13.169c2.971,5.975,12,6.377,17.418,2.481s8.091-10.476,10.5-16.7l9.641-24.9c3.041-7.853,6.416-16.151,13.255-21.063s18.235-4.386,21.963,3.163c3.487,7.067-1.273,15.145-4.462,22.352s-3.238,18.147,4.332,20.335c3.334.964,6.883-.345,9.968-1.934,17.232-8.874,28.2-26.168,42.292-39.469a110.84,110.84,0,0,1,48.748-26.73c7.891-1.988,16.317-3.08,24.1-.7s14.722,8.957,15.42,17.066c1.1,12.879-12.353,21.649-23.954,27.35l-35.876,17.626c-2.346,1.154-4.8,2.4-6.258,4.568-3.632,5.405.967,12.672,6.271,16.452s11.93,6.756,14.3,12.819c2.266,5.786-.443,12.635-5.12,16.729s-10.914,5.911-17.037,6.966c-26.528,4.563-54.119-3.074-80.528,2.144-2.507.5-5.341,1.387-6.318,3.746-.793,1.916-.036,4.119,1,5.913,4.329,7.471,12.853,11.2,19.832,16.283s13.089,14.087,9.426,21.908c-1.579,3.373-4.713,5.766-7.992,7.531-12.057,6.484-26.588,5.947-40.169,4.228-31.4-3.972-56.4-10.608-84.632-24.923" transform="translate(-564.504 -292.441)"/><g transform="translate(0.944 18.856)"><path class="b" d="M565.64,438.98c12.612-13.69,29.092-22.593,46.119-29.61,17.411-7.173,35.485-12.628,52.74-20.19a162.432,162.432,0,0,0,24.929-13.4,227.207,227.207,0,0,0,22.9-17.828c14.473-12.586,28.135-26.222,43.928-37.2,14.712-10.232,31.544-18.471,49.645-19.876,2.349-.182,4.7-.233,7.054-.182.617.016.69-.944.07-.956-17.867-.4-34.917,6.159-49.948,15.4-16.3,10.027-30.225,23.2-44.408,35.918-7.381,6.621-14.867,13.146-22.839,19.054a154.766,154.766,0,0,1-25.084,15.153c-17.219,8.288-35.537,13.9-53.315,20.814-17.058,6.634-33.994,14.632-47.514,27.236-1.7,1.584-3.334,3.241-4.91,4.952-.412.449.218,1.172.638.718Z" transform="translate(-564.868 -299.714)"/></g></g><path class="b" d="M689.094,418.577c-7.129-5.763-13.958-12.052-22.069-16.324a41.156,41.156,0,0,0-12.037-4.161,271.95,271.95,0,0,0,27.155-3.676,40.165,40.165,0,0,0,7.7-2.027c.783-.319,1.517-.736,2.263-1.13,6.7-.241,13.286,2.372,19.228,5.584,6.453,3.487,12.573,7.715,19.51,10.1,13.621,4.684,28.628,1.716,42.422-2.434-9.164-.153-17.877-3.883-26.023-8.088s-16.1-8.985-24.908-11.534a37.651,37.651,0,0,0-18.694-.861c10.263-6.885,20.078-14.644,25.655-25.514,2.175-4.239,3.619-8.806,5.439-13.208a82.737,82.737,0,0,1,9.291-16.69c-5.67,5.548-13.014,8.978-19.765,13.149s-13.317,9.6-15.785,17.144c-.705,2.159-1.05,4.423-1.711,6.6a36.64,36.64,0,0,1-5.188,9.973c-2.9,4.189-6.266,8.195-10.662,10.761-4.158,2.429-8.975,3.425-13.7,4.34-9.172,1.778-18.385,3.342-27.617,4.791,11.2-7.329,22.253-15.479,28.309-27.285,2.172-4.241,3.616-8.809,5.439-13.211a82.674,82.674,0,0,1,9.291-16.69c-5.672,5.548-13.017,8.98-19.765,13.151s-13.32,9.6-15.785,17.141c-.708,2.162-1.05,4.425-1.714,6.6a36.564,36.564,0,0,1-5.187,9.973c-2.893,4.187-6.263,8.195-10.66,10.761-4.158,2.429-8.978,3.425-13.7,4.34-11.58,2.242-42.173,7.083-36.123,8.4h0c13.773-.474,20.687-1.812,34.23-4.368,2.032-.384,9.75-1.571,12.835-1.68,6.357,1.25,12.065,5.045,17.076,9.252,5.615,4.718,10.759,10.092,17.068,13.828,12.4,7.337,27.695,7.458,42.044,6.175C704,429.75,696.223,424.337,689.094,418.577Z" transform="translate(-410.211 -119.04)"/><path class="d" d="M791.51,295.492c-.9-1.874-2.919-2.937-4.892-3.6a30.078,30.078,0,0,0-15.526-.55,73.192,73.192,0,0,0-14.813,5.156,84.753,84.753,0,0,0-14.16,7.6c2.414-3.347,4.809-6.707,7.233-10.046q1.874-2.578,3.751-5.151c18-6.67,25.937-17,32.312-31a8.52,8.52,0,0,0,.358-5.356,4.211,4.211,0,0,0-3.842-2.491,10.191,10.191,0,0,0-4.653,1.221c-13.491,6.3-22.163,20.286-24.973,34.964a3.724,3.724,0,0,1-.853,1.377c-4.539,6.214-8.76,11.505-13.255,17.753a88.684,88.684,0,0,0,5.138-36.078c-.179-2.657-.511-5.4-1.9-7.674s-4.112-3.93-6.694-3.292c-2.6.64-4.179,3.256-5.076,5.776-2.2,6.175-1.97,12.913-1.649,19.461a71.439,71.439,0,0,0,1.757,14.523,37.164,37.164,0,0,0,5.3,11.593q-9.543,13.3-19.046,26.627c-1.55,2.167-3.111,4.329-4.661,6.5a88.68,88.68,0,0,0,4.6-34.5c-.179-2.655-.508-5.4-1.9-7.673s-4.109-3.93-6.694-3.292-4.179,3.259-5.076,5.776c-2.2,6.175-1.97,12.915-1.646,19.461a71.617,71.617,0,0,0,1.755,14.523,37.211,37.211,0,0,0,5.034,11.176c-8.946,12.482-17.924,24.942-27.062,37.284-1.952,2.636-3.961,5.234-5.929,7.86a88.677,88.677,0,0,0,4.944-35.555c-.176-2.655-.508-5.4-1.9-7.673s-4.112-3.93-6.694-3.292c-2.6.64-4.181,3.259-5.078,5.776-2.2,6.175-1.968,12.915-1.646,19.461a71.614,71.614,0,0,0,1.755,14.523A37.268,37.268,0,0,0,671,398.011c-9.125,12.1-18.365,24.117-27.923,35.882l-.018.021a88.64,88.64,0,0,0,5.478-36.95c-.176-2.655-.508-5.4-1.9-7.671s-4.112-3.93-6.694-3.295c-2.6.64-4.182,3.259-5.078,5.779-2.2,6.173-1.968,12.913-1.646,19.459a71.56,71.56,0,0,0,1.755,14.523,37.265,37.265,0,0,0,5.278,11.552c-10.722,13.081-21.794,25.88-33.3,38.274a88.646,88.646,0,0,0,5.537-37.1c-.179-2.655-.508-5.4-1.9-7.673s-4.109-3.93-6.694-3.292-4.179,3.259-5.076,5.776c-2.2,6.175-1.97,12.915-1.646,19.461a71.61,71.61,0,0,0,1.755,14.523,37.24,37.24,0,0,0,5.174,11.391c-.257.275-.506.555-.765.83a596.225,596.225,0,0,1-43.773,42.116q-2.82,2.438-5.675,4.835c-1.205,1.011.41,2.839,1.61,1.83A580.1,580.1,0,0,0,599.83,486.7c1.6-1.667,3.17-3.37,4.76-5.053,14.341,5.141,30.453,3.02,44.833-2.105A16.8,16.8,0,0,0,656,475.923c1.771-1.8,2.719-4.646,1.625-6.924-.9-1.874-2.919-2.937-4.892-3.6a30.1,30.1,0,0,0-15.526-.55,73.2,73.2,0,0,0-14.813,5.159,86.024,86.024,0,0,0-13.753,7.344q16.266-17.522,31.459-36c.29-.353.565-.718.856-1.071,14.385,5.219,30.567,3.093,45-2.051a16.835,16.835,0,0,0,6.577-3.624c1.771-1.8,2.719-4.646,1.625-6.922-.9-1.877-2.919-2.937-4.892-3.6a30.1,30.1,0,0,0-15.526-.547,73.039,73.039,0,0,0-14.813,5.156,77.791,77.791,0,0,0-15.754,8.817q16.974-20.765,33.009-42.274c14.354,5.167,30.487,3.044,44.885-2.087a16.862,16.862,0,0,0,6.579-3.624c1.771-1.8,2.717-4.646,1.623-6.922-.9-1.877-2.919-2.937-4.892-3.6a30.1,30.1,0,0,0-15.526-.547,73.037,73.037,0,0,0-14.813,5.156,77.849,77.849,0,0,0-15.718,8.788c10.087-13.522,19.972-27.192,29.807-40.9,14.37,5.2,30.528,3.069,44.947-2.069a16.853,16.853,0,0,0,6.577-3.624c1.771-1.8,2.719-4.643,1.625-6.922-.9-1.874-2.919-2.937-4.892-3.6a30.1,30.1,0,0,0-15.526-.55,73.039,73.039,0,0,0-14.813,5.159,76.081,76.081,0,0,0-16.135,9.125c1.257-1.755,2.528-3.5,3.785-5.26q12.677-17.724,25.377-35.436c14.191,4.871,30.049,2.761,44.229-2.292a16.861,16.861,0,0,0,6.58-3.624C791.658,300.612,792.6,297.768,791.51,295.492Z" transform="translate(-466.654 -244.129)"/></g><g transform="translate(0 61.524)"><circle class="c" cx="7.262" cy="7.262" r="7.262" transform="translate(25.226 33.252)"/><circle class="c" cx="4.179" cy="4.179" r="4.179" transform="translate(0 57.679)"/><circle class="c" cx="3.057" cy="3.057" r="3.057" transform="translate(23.304)"/></g><g transform="translate(276.363 313.805)"><circle class="e" cx="7.262" cy="7.262" r="7.262" transform="translate(2.132 30.443)"/><circle class="e" cx="4.179" cy="4.179" r="4.179"/><circle class="e" cx="3.057" cy="3.057" r="3.057" transform="translate(39.109 38.967)"/></g></g><g transform="translate(189.055 182.018)"><path class="f" d="M411.872,545.806c-5.584-11.1-7.394-23.658-8.77-36-3.528-31.661-4.669-64.02,2.38-95.084s22.992-60.966,48.512-80.033c18.009-13.455,39.28-23.3,61.526-26.544a254.794,254.794,0,0,1,37.362-2.414c50.474,1.524,78.646,22.65,101.571,61.9s27.806,86.729,24.273,132.047" transform="translate(-400.312 -68.798)"/><g transform="translate(14.572)"><g transform="translate(117.608)"><path class="g" d="M490.465,327.479a62.544,62.544,0,0,1-35.529-36.545,63.624,63.624,0,0,1,3.728-50.889A52.483,52.483,0,0,1,469.3,226.035a45.547,45.547,0,0,1,41.753-10.289,60.224,60.224,0,0,1,19.306,9.6c10.574,7.567,19.573,17.522,25.2,29.248s7.741,25.26,5.058,37.984" transform="translate(-451.299 -214.307)"/><path class="h" d="M477.376,288.545s-13.2-3.834-23.031-22.458c0,0,41.03-54.516,101.757-17.475" transform="translate(-446.449 -180.219)"/><ellipse class="d" cx="28.384" cy="21.136" rx="28.384" ry="21.136" transform="translate(107.633 177.119) rotate(-76.977)"/><path class="i" d="M479.744,283.96c3.728,10.961,6.533,22.494,5.555,34.028s-6.222,23.153-15.821,29.621c-1.937,1.307-4.257,2.732-4.5,5.055a6.849,6.849,0,0,0,.749,3.295A77.088,77.088,0,0,0,489.535,386.9c7.282,5.625,16.063,10.038,25.258,9.665a37.769,37.769,0,0,0,13.8-3.635,64.847,64.847,0,0,0,34.267-37.44,26.637,26.637,0,0,1-19.7-40.3" transform="translate(-429.55 -103.391)"/><path class="j" d="M470.661,283.96s11.1,12.744,21.426,19.161,24.27,16.638,39.923,16.324c0,0-8.659,7.036-29.279,4.962-16.483-1.659-26.515-6.419-26.515-6.419S477.86,300.113,470.661,283.96Z" transform="translate(-420.467 -103.391)"/><path class="i" d="M538.612,240.689c7.134,5.2,14.709,9.68,19.049,17.367,3.323,5.887,4.63,12.677,5.651,19.36,4.923,32.205,4,66.669-11.521,95.315-4.29,7.92-10.722,15.941-19.676,16.915-3.808.415-7.637-.531-11.256-1.786a73.1,73.1,0,0,1-20.122-10.924c-15.6-11.837-28.395-24.558-32.387-43.724s.866-44.615,10.44-61.692" transform="translate(-426.379 -172.296)"/><path class="b" d="M485.583,285.234c9,.381,22.7.353,31.2-.511-1.957,4.791-4.7,9.812-9.509,11.712-4.083,1.615-8.848.532-12.55-1.828s-6.52-5.851-9.138-9.374" transform="translate(-396.705 -102.176)"/><g transform="translate(120.855 132.056)"><path class="g" d="M499.227,271.68a20.876,20.876,0,0,1,3.764-2.2q.63-.3,1.27-.57l-.207.088a29.492,29.492,0,0,1,5.213-1.688c.446-.1.894-.179,1.348-.238l-.231.031a10.949,10.949,0,0,1,2.911-.021l-.231-.031a9.1,9.1,0,0,1,2.318.627l-.207-.088a8.926,8.926,0,0,1,1.952,1.141l-.176-.135a9.561,9.561,0,0,1,1.7,1.711l-.135-.176c.171.223.334.451.487.687a.922.922,0,0,0,.518.4.891.891,0,0,0,.671-.088.881.881,0,0,0,.4-.521.892.892,0,0,0-.088-.671,10.494,10.494,0,0,0-3.417-3.334,10.157,10.157,0,0,0-4.969-1.353,16.513,16.513,0,0,0-4.565.684,33.456,33.456,0,0,0-4.871,1.776,23.646,23.646,0,0,0-3.964,2.2c-.124.088-.249.179-.371.272a.957.957,0,0,0-.4.521.891.891,0,0,0,.088.671.867.867,0,0,0,.521.4.835.835,0,0,0,.672-.088Z" transform="translate(-497.918 -265.246)"/></g><path class="j" d="M502.078,269.254a92.246,92.246,0,0,0,3.723,25.73c.329,1.12.555,2.6-.441,3.215a2.657,2.657,0,0,1-1.327.277l-14.474.477" transform="translate(-390.374 -126.809)"/><path class="j" d="M544.439,247.43c3.546,2.214,7.305,4.677,8.874,8.552,2,4.944-.189,10.541-2.795,15.191a85.435,85.435,0,0,1-51.4,40.2c-4.853,1.327-10.046,2.209-14.878.814-5.763-1.664-10.307-6.525-12.348-12.166a28.255,28.255,0,0,1-.013-17.685" transform="translate(-420.787 -161.562)"/><path class="g" d="M584.448,287.92c-3.9-25.47-17.96-39.939-33.307-44.971l.028.057c-.363-.158-.708-.353-1.078-.5a46.939,46.939,0,0,0-15.228-2.885c-17.893-.8-36.288,4.646-49.847,16.35a82.716,82.716,0,0,0-13.063,14.694c-6.276,8.791-11.476,18.8-12.14,29.582-.653,10.621,3.158,21.056,8.239,30.4,2.88,5.3,6.813,10.81,12.721,12,4.863.975,9.745-1.275,14.105-3.637a186.989,186.989,0,0,0,54.723-44.9,103.034,103.034,0,0,0,10.9-15.554c2.854,9.5,8.765,17.973,14,28.885,3.254,6.784,2.4,21.328,1.395,28.8C581.329,321.035,586.89,303.884,584.448,287.92Z" transform="translate(-437.858 -174.116)"/><ellipse class="k" cx="2.904" cy="4.734" rx="2.904" ry="4.734" transform="translate(126.4 143.229)"/><g transform="translate(77.34 134.075)"><path class="g" d="M502.342,269.918a20.97,20.97,0,0,0-4.145-1.358q-.681-.155-1.364-.285l.22.041a29.362,29.362,0,0,0-5.449-.547c-.459,0-.915.016-1.371.052l.233-.021a11.046,11.046,0,0,0-2.849.6l.22-.078a9.22,9.22,0,0,0-2.136,1.1l.187-.13a8.874,8.874,0,0,0-1.667,1.527l.145-.169a9.524,9.524,0,0,0-1.3,2.03l.1-.2c-.122.254-.231.513-.332.775a.92.92,0,0,1-.423.5.9.9,0,0,1-.674.054.883.883,0,0,1-.5-.423.873.873,0,0,1-.054-.674,10.42,10.42,0,0,1,2.631-3.982,10.117,10.117,0,0,1,4.573-2.375,16.443,16.443,0,0,1,4.607-.3,33.249,33.249,0,0,1,5.133.705,23.371,23.371,0,0,1,4.34,1.307c.143.06.283.122.423.189a.953.953,0,0,1,.5.423.884.884,0,0,1,.057.674.873.873,0,0,1-.425.5.841.841,0,0,1-.674.057Z" transform="translate(-481.132 -266.025)"/></g><ellipse class="k" cx="2.904" cy="4.734" rx="2.904" ry="4.734" transform="translate(87.078 144.759)"/><circle class="l" cx="8.765" cy="8.765" r="8.765" transform="translate(68.575 158.88)"/><ellipse class="l" cx="8.765" cy="6.498" rx="8.765" ry="6.498" transform="translate(122.445 175.361) rotate(-81.565)"/><g transform="translate(17.591 65.507)"><g transform="translate(17.959)"><path class="d" d="M472.639,320.913c3.647-24.286,8.161-52.087,29.652-66.407,9.8-6.53,21.574-9.6,33.258-7.471a52.455,52.455,0,0,1,30.808,18.536c8.778,10.9,9.978,24.553,9.95,39.148,0,1.488-2.105,8.07-.705,8.863s4.148-4.145,4.314-5.439a70.848,70.848,0,0,0-6.937-40.727c-6.113-11.749-17.916-20.791-30.266-25.159a46.935,46.935,0,0,0-36.869,2.416c-11.4,5.654-20.576,15.277-26.821,26.258-7.886,13.869-11.611,29.587-13.963,45.238-.22,1.465.347,3.715,1.732,4.5,1.431.809,2.289-.537,2.481-1.817Z" transform="translate(-465.012 -239.576)"/></g><ellipse class="d" cx="21.136" cy="28.384" rx="21.136" ry="28.384" transform="translate(0 71.811) rotate(-8.816)"/><g transform="translate(23.262 100.97)"><path class="h" d="M467.4,280.7a69.272,69.272,0,0,0,10.24,8.814A91.535,91.535,0,0,0,505.506,303.5a82.23,82.23,0,0,0,21.981,3.4,1.3,1.3,0,0,0,.1-2.59c-20.254-.358-40.1-8.757-55.1-22.29-1.091-.985-2.185-1.991-3.178-3.077a1.3,1.3,0,0,0-1.9,1.76Z" transform="translate(-467.058 -278.524)"/><circle class="h" cx="5.572" cy="5.572" r="5.572" transform="translate(55.797 21.544)"/></g><ellipse class="m" cx="17.777" cy="23.873" rx="17.777" ry="23.873" transform="translate(0.156 76.998) rotate(-8.816)"/></g></g><g transform="translate(0 243.414)"><path class="n" d="M502.969,308.2A336.876,336.876,0,0,0,546,345.569c1,.728,2.152,1.488,3.365,1.268a4.6,4.6,0,0,0,2.258-1.473,203.715,203.715,0,0,0,28.2-34.855c14.245,1,29.071,2.178,41.378,9.423a6.23,6.23,0,0,1,2.483,2.2c.884,1.644.257,3.65-.28,5.436-5.693,18.951,1.04,39.07,3.808,58.664,5.395,38.166-4.462,77.521,2.929,115.352.311,1.594.581,3.463-.526,4.651a4.929,4.929,0,0,1-1.763,1.065c-16.84,7.085-35.563,8.026-53.834,8.127a676.012,676.012,0,0,1-102.239-7.2c-4.475-.658-9.493-1.706-11.9-5.535-2.053-3.256-1.5-7.443-.957-11.254a267,267,0,0,0,2.52-46.414c-1.3-39.332-11.254-77.816-16.283-116.845a3.076,3.076,0,0,1,2.675-4.2L499.78,308.7" transform="translate(-343.629 -308.202)"/><path class="n" d="M520.1,313.867c3.261-2.629,8.415-.1,11.407,2.836a53.014,53.014,0,0,1,9.037,11.679c22.435,41.02,34.557,83.1,46.316,128.345l6.9,26.564c.791,3.041,1.54,6.442.005,9.182-1.317,2.349-3.971,3.562-6.484,4.529a111.8,111.8,0,0,1-49.681,7.028c-3.077-.267-6.245-.7-8.9-2.279-4.658-2.774-6.691-8.376-8.194-13.587-7.554-26.191-10.336-53.515-11.878-80.728-.363-6.408-.659-12.827-.464-19.241.684-22.673,7.451-44.665,14.16-66.335" transform="translate(-243.23 -300.934)"/><path class="o" d="M619.152,397.194c-5.947,5.8-12.511,11.077-20.542,12.622-7.313,1.4-14.88-.529-21.748-3.409s-13.317-6.7-20.27-9.366a65.888,65.888,0,0,0-29.089-4.1c-8.965.767-17.9,3.378-26.821,2.209-13.019-1.706-23.648-11.116-32.265-21.024a179.519,179.519,0,0,1-17.2-23.422c1.032,8.871,1.789,17.766,2.084,26.707a267.255,267.255,0,0,1-2.52,46.414c-.544,3.811-1.1,8,.957,11.256,2.411,3.826,7.43,4.874,11.9,5.535a676.327,676.327,0,0,0,102.239,7.2c18.269-.1,36.994-1.042,53.834-8.127a4.895,4.895,0,0,0,1.763-1.065c1.107-1.187.837-3.057.524-4.651C619.634,421.837,619.045,409.549,619.152,397.194Z" transform="translate(-335.314 -240.529)"/><path class="i" d="M459.358,373.7s78.252,6.574,109.083,17.844,42.884,15.806,47.892,23.163-27.858,4.07-27.858,4.07l-153.38-9.2" transform="translate(-359.493 -203.904)"/><path class="n" d="M510.983,314.338c12,15.736,12.874,36.574,12.594,56.357a135.81,135.81,0,0,1-2.9,27.848c-5.029,22.378-17.792,42.119-30.326,61.323a101.631,101.631,0,0,1,27.526,6.517c1.231.48,2.67,1.309,2.592,2.629-.062,1.029-1.047,1.721-1.918,2.274a70.932,70.932,0,0,0-25.657,28.7,15.224,15.224,0,0,1-3.173,4.957c-2.556,2.274-6.336,2.315-9.758,2.232-22.606-.55-45.476-1.135-67.291-7.09-2.214-.6-4.6-1.4-5.846-3.326-1.431-2.209-.871-5.1-.233-7.658a380.669,380.669,0,0,1,79.88-154.819c6.924-8.083,17.4-21.937,24.506-19.938" transform="translate(-405.933 -298.742)"/><path class="o" d="M481.722,367.173c-.824-5.05-10.24-6.134-17.027-7.139s-13.732.093-20.319,2.007c-4.1,1.19-8.933,3.922-8.436,8.166.456,3.881,5.429,7.155,3.686,10.652a6.8,6.8,0,0,1-2.616,2.416,101.527,101.527,0,0,0-15.22,12.07c-5.6,5.387-10.919,12.667-9.265,20.26a9.724,9.724,0,0,0,3.277,5.6c2.883,2.271,7.075,2.175,10.479.8s6.237-3.824,9.13-6.082A102.26,102.26,0,0,1,461.7,401.09c3.409-1.307,6.937-2.452,9.952-4.513s5.511-5.25,5.711-8.895-2.564-7.51-6.214-7.606c2.743-1.276,5.548-2.59,7.7-4.71s3.577-5.25,2.872-8.192" transform="translate(-395.923 -226.271)"/></g></g></g><rect class="p" width="856.426" height="17.992" rx="3.47" transform="translate(25.056 641.035)"/><g transform="translate(306.275 460.316)"><rect class="q" width="418.227" height="12.43" rx="1.785" transform="translate(0 168.628)"/><path class="r" d="M774.189,502.377H497.69l13.184-180.719H790.051Z" transform="translate(-362.466 -321.658)"/><path class="s" d="M776.556,502.377h-276.5l13.184-180.719H792.418Z" transform="translate(-358.697 -321.658)"/><circle class="t" cx="17.842" cy="17.842" r="17.842" transform="translate(273.724 72.517)"/></g></g></g></svg>